# xmcd
#
# Track frame offsets: 
#        150
#        4875
#        15933
#        21708
#        32073
#        36447
#        42408
#        48621
#        62751
#        69523
#        82013
#        93975
#        102503
#        113830
#        123970
#        142210
#        154627
#        167614
#        176635
#        200398
#        209641
#        228507
#
# Disc length: 3218 seconds
#
# Revision: 0
# Processed by: cddbd v1.5.2PL0 Copyright (c) Steve Scherf et al.
# Submitted via: ExactAudioCopy v1.0b3
#
DISCID=3b0c9016
DTITLE=Buck Owens - "Live" At The White House (... And In Space)
DYEAR=2012
DGENRE=Country
TTITLE0=Introduction
TTITLE1=You Ain't Gonna Have Ol' Buck To Kick Around No More
TTITLE2=Act Naturally
TTITLE3=Together Again
TTITLE4=Love's Gonna Live Here
TTITLE5=Crying Time
TTITLE6=Happy Times Are Here Again
TTITLE7=Doyle Holly - Streets Of Laredo
TTITLE8=Don Rich - Oragne Blossom Special
TTITLE9=Buddy Alan - Gentle On My Mind
TTITLE10=Buddy Alan - When I Turn Twenty-One
TTITLE11=I've Got A Tiger By The Tail
TTITLE12=Truck Drivin' Man
TTITLE13=Good Ole Mountain Dew
TTITLE14=Sam's Place
TTITLE15=Roll In My Sweet Baby's Arms
TTITLE16=Buddy Alan - White Lightning
TTITLE17=Georgia Pineywoods
TTITLE18=Susan Raye - I've Got A Happy Heart
TTITLE19=Buck Owens and Susan Raye - Milwaukee Here I Come
TTITLE20=The Bakersfield Brass - Sally Was A Good Girl
TTITLE21=Tall Dark Stranger
EXTD=
EXTT0=
EXTT1=
EXTT2=
EXTT3=
EXTT4=
EXTT5=
EXTT6=
EXTT7=
EXTT8=
EXTT9=
EXTT10=
EXTT11=
EXTT12=
EXTT13=
EXTT14=
EXTT15=
EXTT16=
EXTT17=
EXTT18=
EXTT19=
EXTT20=
EXTT21=
PLAYORDER=
